<svg xmlns="http://www.w3.org/2000/svg" width="1200" height="630" viewBox="0 0 1200 630">
  <defs>
    <linearGradient id="background" x1="0" y1="0" x2="1200" y2="630" gradientUnits="userSpaceOnUse">
      <stop stop-color="#fffdf8"/>
      <stop offset="1" stop-color="#f1eadf"/>
    </linearGradient>
    <linearGradient id="brand" x1="82" y1="58" x2="154" y2="136" gradientUnits="userSpaceOnUse">
      <stop stop-color="#4b8bf4"/>
      <stop offset="0.55" stop-color="#1f65d6"/>
      <stop offset="1" stop-color="#164ea9"/>
    </linearGradient>
    <filter id="shadow" x="-30%" y="-30%" width="160%" height="180%">
      <feDropShadow dx="0" dy="14" stdDeviation="14" flood-color="#564b3f" flood-opacity="0.16"/>
    </filter>
    <filter id="soft-shadow" x="-50%" y="-50%" width="200%" height="220%">
      <feDropShadow dx="0" dy="8" stdDeviation="8" flood-color="#164ea9" flood-opacity="0.22"/>
    </filter>
  </defs>
  <rect width="1200" height="630" fill="url(#background)"/>
  <circle cx="1080" cy="82" r="190" fill="#ffd447" opacity="0.16"/>
  <circle cx="114" cy="614" r="230" fill="#58e6a9" opacity="0.12"/>
  <path d="M742 0c107 96 174 229 187 390 10 117 69 199 177 240H1200V0Z" fill="#dfeaff" opacity="0.72"/>

  <g filter="url(#soft-shadow)">
    <rect x="76" y="58" width="78" height="78" rx="23" fill="url(#brand)"/>
    <path d="M94 116V79h11l10 14 10-14h11v37h-10V94l-11 16-11-16v22H94Z" fill="#fffdf8"/>
  </g>
  <text x="178" y="112" fill="#211f1c" font-family="Apple SD Gothic Neo,Noto Sans KR,sans-serif" font-size="45" font-weight="900">모여<tspan fill="#1f65d6">PLAY</tspan></text>
  <text x="78" y="270" fill="#211f1c" font-family="Apple SD Gothic Neo,Noto Sans KR,sans-serif" font-size="75" font-weight="900">친구들이 모이면</text>
  <text x="78" y="365" fill="#1f65d6" font-family="Apple SD Gothic Neo,Noto Sans KR,sans-serif" font-size="89" font-weight="900">바로 한 판!</text>
  <text x="82" y="444" fill="#665f57" font-family="Apple SD Gothic Neo,Noto Sans KR,sans-serif" font-size="27" font-weight="600">로그인과 설치 없이 한 기기에서 즐기는 8가지 파티 게임</text>
  <rect x="80" y="493" width="326" height="54" rx="27" fill="#1f65d6"/>
  <text x="243" y="528" text-anchor="middle" fill="#fffdf8" font-family="Apple SD Gothic Neo,Noto Sans KR,sans-serif" font-size="21" font-weight="800" letter-spacing="1.5">MOYEOPLAY.STUDIO</text>

  <g filter="url(#shadow)">
    <rect x="695" y="88" width="428" height="452" rx="60" fill="#fffdf8" stroke="#e7dfd4" stroke-width="3"/>
    <rect x="744" y="140" width="145" height="145" rx="38" fill="#55b987"/>
    <path d="M767 164h99M767 190h99M767 216h99M767 242h99M792 151v121M817 151v121M842 151v121" stroke="#26724f" stroke-width="4" opacity="0.58"/>
    <circle cx="806" cy="199" r="13" fill="#272725"/><circle cx="842" cy="228" r="13" fill="#fffdf8"/><circle cx="854" cy="178" r="13" fill="#272725"/><circle cx="781" cy="239" r="13" fill="#fffdf8"/>
    <rect x="925" y="140" width="145" height="145" rx="38" fill="#3479ea"/>
    <circle cx="998" cy="211" r="48" fill="#f05043"/>
    <rect x="988" y="228" width="20" height="57" rx="10" fill="#be7a3b" transform="rotate(-25 998 256)"/>
    <circle cx="1047" cy="250" r="16" fill="#fffdf8"/>
    <rect x="744" y="320" width="145" height="145" rx="38" fill="#f8bf36"/>
    <circle cx="817" cy="392" r="53" fill="#fffdf8"/>
    <path d="M776 370c31 7 57 21 80 49M786 425c15-30 34-55 58-77M805 340c7 29 7 63 0 103" fill="none" stroke="#2e68ca" stroke-width="15"/>
    <rect x="925" y="320" width="145" height="145" rx="38" fill="#f56c60"/>
    <circle cx="998" cy="393" r="52" fill="#2c2a28"/>
    <path d="M998 393 998 342A51 51 0 0 1 1043 369Z" fill="#ffd447"/><path d="M998 393 1043 369A51 51 0 0 1 1030 432Z" fill="#4b8bf4"/><path d="M998 393 1030 432A51 51 0 0 1 965 435Z" fill="#55b987"/><path d="M998 393 965 435A51 51 0 0 1 951 371Z" fill="#fffdf8"/><path d="M998 393 951 371A51 51 0 0 1 998 342Z" fill="#f05043"/>
    <circle cx="998" cy="393" r="12" fill="#fffdf8"/>
  </g>
</svg>
