<svg xmlns="http://www.w3.org/2000/svg" viewBox="0 0 1200 630">
  <defs>
    <linearGradient id="bg" x1="0" y1="0" x2="1" y2="1"><stop stop-color="#0c2139"/><stop offset="1" stop-color="#06101c"/></linearGradient>
    <pattern id="grid" width="48" height="48" patternUnits="userSpaceOnUse"><path d="M48 0H0v48" fill="none" stroke="#45e4e0" stroke-opacity=".06"/></pattern>
  </defs>
  <rect width="1200" height="630" fill="url(#bg)"/>
  <rect width="1200" height="630" fill="url(#grid)"/>
  <g transform="translate(82 92)">
    <rect width="80" height="80" rx="22" fill="#ffd447" transform="rotate(-5 40 40)"/>
    <path d="M20 58V22h10l10 15 10-15h10v36H50V38L40 52 30 38v20H20Z" fill="#07111f"/>
  </g>
  <text x="190" y="145" fill="#f7f8fb" font-family="system-ui,sans-serif" font-size="50" font-weight="900">모여<tspan fill="#ffd447">PLAY</tspan></text>
  <text x="82" y="300" fill="#f7f8fb" font-family="system-ui,sans-serif" font-size="78" font-weight="900">친구들이 모이면</text>
  <text x="82" y="395" fill="#ffd447" font-family="system-ui,sans-serif" font-size="92" font-weight="900">바로 한 판.</text>
  <text x="88" y="480" fill="#aab9c8" font-family="system-ui,sans-serif" font-size="28">로그인 없이 한 기기에서 즐기는 8가지 파티 게임</text>
  <g transform="translate(855 125)">
    <circle cx="120" cy="120" r="115" fill="none" stroke="#45e4e0" stroke-opacity=".3" stroke-width="2"/>
    <circle cx="120" cy="120" r="76" fill="none" stroke="#ff5d9e" stroke-opacity=".4" stroke-dasharray="8 10" stroke-width="2"/>
    <rect x="75" y="75" width="90" height="90" rx="28" fill="#45e4e0" transform="rotate(-8 120 120)"/>
    <text x="120" y="140" text-anchor="middle" fill="#07111f" font-family="system-ui,sans-serif" font-size="56" font-weight="900">8</text>
    <circle cx="15" cy="280" r="18" fill="#ffd447"/><circle cx="215" cy="300" r="24" fill="#ff5d9e"/><circle cx="260" cy="45" r="13" fill="#a675ff"/>
  </g>
</svg>
